<svg id="icon_navigation_close_24px_" data-name="icon/navigation/close_24px " xmlns="http://www.w3.org/2000/svg" xmlns:xlink="http://www.w3.org/1999/xlink" width="24" height="24" viewBox="0 0 24 24">
  <defs>
    <clipPath id="clip-path">
      <path id="_Color" data-name=" ↳Color" d="M10,20A10,10,0,0,1,2.926,2.926,10,10,0,0,1,17.074,17.074,9.936,9.936,0,0,1,10,20Zm0-8.59h0L13.59,15,15,13.59,11.41,10,15,6.41,13.59,5,10,8.59,6.41,5,5,6.41,8.59,10,5,13.59,6.41,15,10,11.411Z" transform="translate(2 2)"/>
    </clipPath>
  </defs>
  <g id="Group_191" data-name="Group 191">
    <path id="_Color-2" data-name=" ↳Color" d="M10,20A10,10,0,0,1,2.926,2.926,10,10,0,0,1,17.074,17.074,9.936,9.936,0,0,1,10,20Zm0-8.59h0L13.59,15,15,13.59,11.41,10,15,6.41,13.59,5,10,8.59,6.41,5,5,6.41,8.59,10,5,13.59,6.41,15,10,11.411Z" transform="translate(2 2)"/>
  </g>
</svg>
